<?xml version="1.0" encoding="UTF-8"?>
<svg version="1.1" xmlns="http://www.w3.org/2000/svg" width="90" height="90">
<path d="M0 0 C5.27620998 1.64340966 8.42466039 4.88450372 11.8125 9.1875 C11.8125 9.8475 11.8125 10.5075 11.8125 11.1875 C12.4725 11.1875 13.1325 11.1875 13.8125 11.1875 C14.4725 12.8375 15.1325 14.4875 15.8125 16.1875 C16.88886719 15.58421875 17.96523438 14.9809375 19.07421875 14.359375 C40.07627968 2.78759916 40.07627968 2.78759916 51.8125 3.1875 C59.27730976 18.19290439 62.56030908 36.82757957 57.8125 53.1875 C53.10030382 65.81911299 45.88852891 77.27280971 33.75 83.8125 C28.71550903 86.06511199 24.28352891 86.99811823 18.8125 87.1875 C14.25743413 87.56732214 14.25743413 87.56732214 10.09375 89.1953125 C4.132739 91.78794399 -4.86865213 91.21008862 -11.02734375 89.3125 C-20.22897792 84.53079609 -25.13915725 76.22472073 -28.375 66.6875 C-31.88263134 50.69775715 -30.17633487 35.34216876 -21.3984375 21.33203125 C-16.8159242 14.85991585 -11.63267722 8.94413706 -6.1875 3.1875 C-5.671875 2.60355469 -5.15625 2.01960937 -4.625 1.41796875 C-3.1875 0.1875 -3.1875 0.1875 0 0 Z " fill="#F5A86B" transform="translate(30.1875,-0.1875)"/>
<path d="M0 0 C7.46480976 15.00540439 10.74780908 33.64007957 6 50 C1.28780382 62.63161299 -5.92397109 74.08530971 -18.0625 80.625 C-23.16028584 82.8950565 -27.41766102 84 -33 84 C-35.25 83 -35.25 83 -37 82 C-36.32904297 81.35998047 -36.32904297 81.35998047 -35.64453125 80.70703125 C-26.31693177 71.06121943 -23.71885215 58.88217382 -23.75561523 45.81689453 C-23.94863829 35.43906659 -27.40492225 27.65579501 -32.57421875 18.84765625 C-34 16 -34 16 -34 12 C-12.17954845 -0.43433754 -12.17954845 -0.43433754 0 0 Z " fill="#D78954" transform="translate(82,3)"/>
<path d="M0 0 C5.32663245 0 7.61443216 1.16895006 11.4375 4.9375 C15 8.66223909 15 8.66223909 15 11 C15.66 11 16.32 11 17 11 C28.11941964 26.66046299 34.47804373 41.73783801 31.5 61.28125 C28.86773259 72.88715632 24.14730735 82.28581856 14.0625 88.9375 C10.14094661 90.29803893 7.13426376 90.21384123 3 90 C4.58376826 88.94415449 6.17785442 87.89874812 7.83203125 86.95703125 C16.55889212 81.91369745 21.09126193 75.65104374 24 66 C27.14086457 51.43970067 25.89567413 36.26483385 18.3125 23.4375 C13.0315621 15.28838298 7.58989689 8.07191751 0 2 C0 1.34 0 0.68 0 0 Z " fill="#E99B58" transform="translate(27,0)"/>
<path d="M0 0 C1.98 0 3.96 0 6 0 C13.46480976 15.00540439 16.74780908 33.64007957 12 50 C7.27025099 62.67866547 0.04952622 74.14747301 -12.1875 80.625 C-16.50187478 82.56229345 -20.27946841 83.78543038 -25 84 C-25 83.34 -25 82.68 -25 82 C-24.19175781 81.62488281 -23.38351563 81.24976562 -22.55078125 80.86328125 C-14.48181764 77.02883071 -14.48181764 77.02883071 -8 71 C-7.54625 70.54625 -7.0925 70.0925 -6.625 69.625 C4.97039019 57.54646855 6.52703363 43.53801533 6.36328125 27.609375 C6.06842613 18.9218139 3.89374561 11.14043848 1 3 C0.67 2.01 0.34 1.02 0 0 Z " fill="#C67B45" transform="translate(76,3)"/>
<path d="M0 0 C0.66 0 1.32 0 2 0 C1.41112855 10.20710514 -3.22391736 18.89600676 -8.125 27.6875 C-8.46152588 28.29996582 -8.79805176 28.91243164 -9.14477539 29.54345703 C-11.63799589 33.87933196 -11.63799589 33.87933196 -15 35 C-14.4317634 31.17116765 -13.34969735 28.61113148 -11.25 25.375 C-6.28351394 17.35954408 -2.79851344 8.98470105 0 0 Z " fill="#C67B45" transform="translate(78,33)"/>
<path d="M0 0 C0.99 0 1.98 0 3 0 C5.24819963 8.06342465 5.23179097 15.72869701 5.125 24.0625 C5.11494631 25.41861315 5.1058247 26.77473355 5.09765625 28.13085938 C5.07424058 31.420761 5.04144423 34.71028438 5 38 C4.01 38 3.02 38 2 38 C2.01047363 37.34628418 2.02094727 36.69256836 2.03173828 36.01904297 C2.20088453 23.84265403 2.36543098 11.99611427 0 0 Z " fill="#EA9B59" transform="translate(41,27)"/>
<path d="M0 0 C0.66 0 1.32 0 2 0 C2.05534912 0.58378418 2.11069824 1.16756836 2.16772461 1.76904297 C2.42405552 4.47105347 2.68077613 7.17302681 2.9375 9.875 C3.02451172 10.7928125 3.11152344 11.710625 3.20117188 12.65625 C3.78266558 18.77270235 4.38272387 24.88705547 5 31 C4.01 30.67 3.02 30.34 2 30 C-1.8731799 9.0433302 -1.8731799 9.0433302 -1 1 C-0.67 0.67 -0.34 0.34 0 0 Z " fill="#EB9C5A" transform="translate(14,47)"/>
<path d="M0 0 C0.66 0 1.32 0 2 0 C2.05834395 3.87493616 2.09371201 7.74975836 2.125 11.625 C2.15013672 13.26662109 2.15013672 13.26662109 2.17578125 14.94140625 C2.23662606 24.98079979 2.23662606 24.98079979 0 30 C-0.66 29.67 -1.32 29.34 -2 29 C-1.34 19.43 -0.68 9.86 0 0 Z " fill="#EA9B59" transform="translate(33,56)"/>
<path d="M0 0 C0.99 0.33 1.98 0.66 3 1 C0.76686274 8.44379088 -2.40272079 15.11976695 -6 22 C-6.66 21.67 -7.32 21.34 -8 21 C-5.72564796 13.81783567 -2.96415819 6.9241798 0 0 Z " fill="#C77B45" transform="translate(75,16)"/>
<path d="M0 0 C0.99 0 1.98 0 3 0 C4.17402193 7.33763707 4.09377123 14.58165418 4 22 C3.34 22 2.68 22 2 22 C0.82530556 19.65061112 0.79965111 18.04926795 0.68359375 15.4296875 C0.64169922 14.53378906 0.59980469 13.63789063 0.55664062 12.71484375 C0.51732422 11.77769531 0.47800781 10.84054688 0.4375 9.875 C0.39431641 8.93011719 0.35113281 7.98523438 0.30664062 7.01171875 C0.20040928 4.67462908 0.09836824 2.3374317 0 0 Z " fill="#EB9C5A" transform="translate(31,14)"/>
<path d="M0 0 C0.66 0 1.32 0 2 0 C2 5.61 2 11.22 2 17 C1.01 17 0.02 17 -1 17 C-0.67 11.39 -0.34 5.78 0 0 Z " fill="#EA9B59" transform="translate(25,28)"/>
<path d="M0 0 C0.66 0 1.32 0 2 0 C2.33 5.61 2.66 11.22 3 17 C2.01 17 1.02 17 0 17 C-0.19386492 14.35448944 -0.38038267 11.70882217 -0.5625 9.0625 C-0.61857422 8.30775391 -0.67464844 7.55300781 -0.73242188 6.77539062 C-0.86176157 4.85254042 -0.93516912 2.92610452 -1 1 C-0.67 0.67 -0.34 0.34 0 0 Z " fill="#EA9B59" transform="translate(25,62)"/>
<path d="M0 0 C0.66 0 1.32 0 2 0 C1.32902328 4.19360449 -0.8558394 7.40334352 -3 11 C-3.66 10.67 -4.32 10.34 -5 10 C-4.38479725 6.00118212 -2.39731331 3.19641774 0 0 Z " fill="#C67B45" transform="translate(62,28)"/>
<path d="M0 0 C0.99 0 1.98 0 3 0 C2.34 2.97 1.68 5.94 1 9 C0.34 9 -0.32 9 -1 9 C-0.67 6.03 -0.34 3.06 0 0 Z " fill="#EB9C59" transform="translate(16,27)"/>
<path d="M0 0 C0.66 0 1.32 0 2 0 C1.6875 1.875 1.6875 1.875 1 4 C0.01 4.66 -0.98 5.32 -2 6 C-2 2 -2 2 0 0 Z " fill="#C77C46" transform="translate(55,21)"/>
</svg>
